<?xml version="1.0" encoding="utf-8"?>
<!-- Generator: Adobe Illustrator 27.5.0, SVG Export Plug-In . SVG Version: 6.00 Build 0)  -->
<svg version="1.1" xmlns="http://www.w3.org/2000/svg" xmlns:xlink="http://www.w3.org/1999/xlink" x="0px" y="0px"
	 viewBox="0 0 841.89 566.929" style="enable-background:new 0 0 841.89 566.929;" xml:space="preserve">
<g id="BG_1_">
	<rect y="0" style="fill:#2D3342;" width="841.89" height="566.929"/>
</g>
<g id="graphics">
	<g>
		<g>
			<path style="fill:#8B8C8C;" d="M299.698,400.073v7.645h-19.141v7.92h17.216v7.315h-17.216v7.976h19.745v7.59h-28.324v-38.444
				H299.698z"/>
			<path style="fill:#8B8C8C;" d="M348.593,400.073h8.58v38.444h-8.58l-18.316-24.09v24.09h-8.579v-38.444h8.029l18.865,24.75
				V400.073z"/>
			<path style="fill:#8B8C8C;" d="M380.382,400.073h8.579v38.444h-8.579V400.073z"/>
			<path style="fill:#8B8C8C;" d="M437.142,418.938h8.635v13.64c-3.814,4.254-9.094,6.381-15.84,6.381
				c-5.647,0-10.387-1.871-14.218-5.61c-3.832-3.74-5.747-8.46-5.747-14.163c0-5.701,1.952-10.458,5.857-14.272
				c3.905-3.813,8.616-5.721,14.135-5.721c5.518,0,10.313,1.815,14.383,5.445l-4.455,6.436c-1.724-1.504-3.31-2.539-4.758-3.108
				c-1.449-0.567-3.017-0.853-4.702-0.853c-3.264,0-6.014,1.109-8.25,3.328c-2.237,2.219-3.355,5.143-3.355,8.772
				c0,3.631,1.072,6.537,3.218,8.719c2.145,2.182,4.702,3.272,7.673,3.272c2.97,0,5.444-0.567,7.425-1.705V418.938z"/>
			<path style="fill:#8B8C8C;" d="M501.602,414.317l-10.396,21.01h-5.114l-10.341-21.01v24.2h-8.579v-38.444h11.605l9.9,21.119
				l9.955-21.119h11.55v38.444h-8.58V414.317z"/>
			<path style="fill:#8B8C8C;" d="M560.781,438.518l-3.575-8.306h-16.115l-3.574,8.306h-9.131l16.61-38.444h8.305l16.61,38.444
				H560.781z M549.176,411.513l-4.84,11.165h9.625L549.176,411.513z"/>
		</g>
	</g>
	<g>
		<linearGradient id="SVGID_1_" gradientUnits="userSpaceOnUse" x1="510.6007" y1="178.7267" x2="331.6928" y2="357.6346">
			<stop  offset="0" style="stop-color:#DEC699"/>
			<stop  offset="1" style="stop-color:#B8A379"/>
		</linearGradient>
		<path style="fill:url(#SVGID_1_);" d="M497.193,202.214l-34.652,34.653l-5-4.999l34.654-34.653l-24.25-24.25
			c-6.535,0-52.776,0-59.963,0l13,13c14.553,0,26.43-0.001,41.579,0l11.25,11.25l-25.461,25.461l-13.588-13.587l-9.191,9.192
			c5.244,5.245,21.621,21.622,27.777,27.778l-27.402,27.404l23.25,23.251l9.191-9.192l-14.057-14.059l52.863-52.865l11.252,11.25
			v13.923l-18.5,18.5l-13.699-13.699l-9.193,9.192c10.858,10.857,24.568,24.569,35.445,35.445v-18.385l-3.361-3.361l22.309-22.308
			c0-13.959,0-10.642,0-24.692L497.193,202.214z"/>
		
			<linearGradient id="SVGID_00000166670503114527759000000001148064843357093257_" gradientUnits="userSpaceOnUse" x1="551.2662" y1="219.3922" x2="372.3583" y2="398.3001">
			<stop  offset="0" style="stop-color:#DEC699"/>
			<stop  offset="1" style="stop-color:#B8A379"/>
		</linearGradient>
		<path style="fill:url(#SVGID_00000166670503114527759000000001148064843357093257_);" d="M508.445,315.079l-11.252,11.25
			l-25.461-25.461l13.588-13.587l-9.193-9.192c-5.244,5.245-21.621,21.621-27.777,27.778l-27.405-27.404l-23.251,23.251l9.192,9.192
			l14.059-14.059l52.866,52.865l-11.25,11.251h-13.924l-18.5-18.5l13.699-13.699l-9.191-9.192
			c-10.857,10.857-24.57,24.568-35.446,35.444h18.385l3.361-3.36l22.307,22.308c13.959,0,10.642,0,24.693,0l24.25-24.251
			l-34.654-34.653l5-4.999l34.652,34.653l24.252-24.25c0-6.535,0-52.775,0-59.963l-13,13
			C508.445,288.054,508.445,299.931,508.445,315.079z"/>
		
			<linearGradient id="SVGID_00000114035243269740879820000014952466883463787919_" gradientUnits="userSpaceOnUse" x1="515.6829" y1="183.8086" x2="336.775" y2="362.7165">
			<stop  offset="0" style="stop-color:#DEC699"/>
			<stop  offset="1" style="stop-color:#B8A379"/>
		</linearGradient>
		<path style="fill:url(#SVGID_00000114035243269740879820000014952466883463787919_);" d="M379.33,360.964l-11.25-11.251
			l25.461-25.461l13.588,13.587l9.191-9.192c-5.245-5.245-21.621-21.622-27.778-27.778l27.403-27.404l-23.25-23.251l-9.193,9.192
			l14.059,14.059l-52.864,52.865l-11.251-11.25v-13.923l18.5-18.5l13.699,13.699l9.192-9.192
			c-10.857-10.857-24.568-24.569-35.444-35.444v18.385l3.36,3.36l-22.308,22.308c0,13.959,0,10.642,0,24.692l24.251,24.25
			l34.653-34.653l5,4.999l-34.654,34.653l24.25,24.251c6.535,0,52.776,0,59.963,0l-13.001-13
			C406.355,360.964,394.478,360.964,379.33,360.964z"/>
		
			<linearGradient id="SVGID_00000050653369485002567450000014713752499558521766_" gradientUnits="userSpaceOnUse" x1="475.0165" y1="143.1426" x2="296.1089" y2="322.0503">
			<stop  offset="0" style="stop-color:#DEC699"/>
			<stop  offset="1" style="stop-color:#B8A379"/>
		</linearGradient>
		<path style="fill:url(#SVGID_00000050653369485002567450000014713752499558521766_);" d="M333.445,231.849l11.251-11.25
			l25.461,25.461l-13.587,13.588l9.192,9.192c5.245-5.246,21.622-21.622,27.778-27.779l27.404,27.404l23.25-23.251l-9.191-9.192
			l-14.059,14.059l-52.865-52.865l11.25-11.25h13.923l18.5,18.5l-13.699,13.698l9.192,9.192
			c10.857-10.857,24.569-24.568,35.446-35.444h-18.385l-3.362,3.361l-22.308-22.308c-13.958,0-10.642,0-24.692,0l-24.25,24.25
			l34.654,34.653l-5,4.999l-34.653-34.653l-24.251,24.25c0,6.535,0,52.775,0,59.964l13-13
			C333.445,258.874,333.445,246.997,333.445,231.849z"/>
	</g>
</g>
</svg>
