<?xml version="1.0" encoding="utf-8"?>
<!-- Generator: Adobe Illustrator 27.5.0, SVG Export Plug-In . SVG Version: 6.00 Build 0)  -->
<svg version="1.1" xmlns="http://www.w3.org/2000/svg" xmlns:xlink="http://www.w3.org/1999/xlink" x="0px" y="0px"
	 viewBox="0 0 500 500" style="enable-background:new 0 0 500 500;" xml:space="preserve">
<g id="BACKGROUND">
	<rect style="fill:#FFFFFF;" width="500" height="500"/>
</g>
<g id="OBJECTS">
	<g>
		<g>
			<path style="fill:#1B293B;" d="M246.664,334.738l-9.274-7.784c-30.956-25.99-54.928-62.275-69.323-104.933
				c-10.824-32.071-12.525-56.596-12.593-57.624l-0.561-8.554l6.557-5.144c23.092-18.118,52.922-30.203,88.663-35.917
				c29.621-4.736,57.443-4.1,75.566-2.732c13.995,1.056,22.819,2.587,23.189,2.651l15.252,2.67l-1.312,15.539
				c-5.844,69.178-34.18,118.447-56.921,147.597c-24.819,31.814-48.427,47.24-49.419,47.881L246.664,334.738z M243.804,319.315
				l3.631,3.048l3.64-2.353c0.937-0.605,23.173-15.139,46.967-45.639c21.909-28.083,49.209-75.567,54.847-142.301l0.544-6.448
				l-6.267-1.097c-0.35-0.061-8.706-1.51-22.217-2.53c-17.592-1.328-44.577-1.948-73.242,2.635
				c-34.047,5.444-62.336,16.855-84.08,33.916l-2.416,1.895l0.217,3.303c0.064,0.976,1.679,24.237,12.09,55.086
				C191.328,259.755,214.249,294.502,243.804,319.315L243.804,319.315z"/>
		</g>
		<path style="fill:#E48720;" d="M171.654,163.872c0,0,6.02,91.936,75.802,150.523c0,0,88.554-57.232,99.215-183.456
			C346.671,130.939,237.904,111.891,171.654,163.872z"/>
		<g>
			<path style="fill:#FFFFFF;" d="M299.752,127.532c27.464,0,46.92,3.407,46.92,3.407
				c-10.661,126.224-99.215,183.456-99.215,183.456c-69.782-58.587-75.802-150.523-75.802-150.523
				C209.886,133.874,262.275,127.532,299.752,127.532 M299.752,124.998c-37.708,0-90.812,6.398-129.661,36.88l-1.052,0.825
				l0.087,1.334c0.062,0.952,1.644,23.663,11.861,53.936c5.999,17.778,13.747,34.437,23.029,49.514
				c11.619,18.875,25.687,35.31,41.812,48.848l1.433,1.203l1.571-1.016c0.919-0.594,22.767-14.886,46.232-44.963
				c13.763-17.642,25.182-37.061,33.94-57.716c10.944-25.811,17.738-53.633,20.192-82.692l0.195-2.309l-2.283-0.4
				C346.912,128.409,327.119,124.998,299.752,124.998L299.752,124.998z"/>
		</g>
		<g>
			<defs>
				<path id="SVGID_1_" d="M142.447,161.363c0,0-18.101,53.702,17.616,76.663c11.78,7.573,24.859,0.981,24.72,1.147
					c0.138,0.301,6.837-0.796,6.837-0.796c2.805,6.637,7.71,16.076,11.15,22.062c10.788,18.768,25.269,37.653,44.687,53.956
					c0,0,88.554-57.232,99.215-183.456c0,0-9.38-2.353-31.142-3.036c0,0,7.758-61.576-55.003-58.027
					c-28.227,1.596-34.566,24.561-65.491,43.172C171.38,127.283,144.129,143.849,142.447,161.363z"/>
			</defs>
			<clipPath id="SVGID_00000016054190107316999140000002158845911724473787_">
				<use xlink:href="#SVGID_1_"  style="overflow:visible;"/>
			</clipPath>
			<g style="clip-path:url(#SVGID_00000016054190107316999140000002158845911724473787_);">
				<path style="fill:#1B293B;" d="M305.998,151.06c4.84-3.169,10.383-5.15,15.895-5.263c-5.263-6.175-13.006-10.428-20.012-8.905
					c-4.132,0.898-8.292,2.46-12.184,4.459c-2.056,1.056-4.065,2.267-6.013,3.626c-1.056,0.737-4.16,4.237-5.225,4.139
					c6.827,0.632,12.965,4.385,18.915,8.943C300.102,155.435,302.965,153.046,305.998,151.06z"/>
				<path style="fill:#1B293B;" d="M351.511,199.991c0,0-16.199-10.912-22.984-26.195s-12.229-35.3-38.497-43.18
					c-24.838-7.451-68.45,41.201-81.462,59.933c-13.012,18.732-8.446,25.498-8.446,25.498
					c-13.579,20.258-10.933,44.307-4.285,53.945c6.648,9.638,12.418,14.512,17.155,21.385c3.898,5.656,9.526,17.383,9.526,17.383
					s1.917-2.599,2.318-5.809c0.926,1.907,2.457,4.809,5.012,9.199c6.098,10.477,19.038,19.933,19.038,19.933
					s19.084-8.81,29.908-16.873c13.294-9.902,15.763-12.887,15.763-12.887s-0.347,2.729,0.257,5.413c0,0,9.509-4.599,25.095-24.278
					c15.586-19.679,10.505-42.781,10.505-42.781s3.998,1.609,7.485,0.772c0,0,0.154-20.378-5.41-32.753
					C332.489,208.694,344.771,206.871,351.511,199.991z"/>
				<path style="fill:#E48720;" d="M319.163,196.768c11.63,14.525,11.535,35.453,11.535,35.453
					c-2.037-2.287-9.555-5.339-10.027-5.52c0.107,0.232,1.108,2.534,1.974,6.723c1.203,5.825,2.097,15.265-0.13,27.797
					c-3.935,22.057-23.041,37.4-23.041,37.4c0.631-1.404-0.165-8.668-1.092-13.88c-2.265,3.457-7.962,11.907-16.332,19.728
					c-10.27,9.603-31.717,20.031-31.717,20.031s-5.798-3.25-10.697-9.6c-4.553-5.884-8.84-13.331-8.478-20.199
					c0.74-14.321-20.483-19.593-24.401-23.223c-1.978-1.795-4.053-4.241-6.206-7.988c-6.461-11.196-3.282-25.608,4.252-42.377
					c0,0-0.202-0.485-0.559-1.383c-0.39-1.002-0.976-2.543-1.633-4.467c-0.026-0.069-0.043-0.115-0.069-0.184
					c-1.359-3.941-3.122-9.504-4.512-15.636l0.002-0.022c-0.333-1.46-0.64-2.961-0.933-4.494c-0.419-2.341-0.787-4.755-1.035-7.167
					c-0.93-8.979-0.308-17.887,3.805-24.015c6.834-10.112,27.964-20.97,49.882-25.67c1.581-0.334,3.172-0.656,4.756-0.913
					c6.477-1.122,12.917-1.662,19.007-1.431c0.239,0.003,0.479,0.005,0.717,0.019c2.82,0.136,5.569,0.431,8.18,0.91
					c3.875,0.698,7.513,1.803,10.767,3.365c20.159,9.681,21.771,23.913,27.213,34.408c9.117,17.636,17.44,23.632,18.44,24.31
					c0.072,0.041,0.102,0.066,0.102,0.066c-0.844,0.377-1.755,0.659-2.698,0.827C328.778,201.074,319.163,196.768,319.163,196.768z"
					/>
				<path style="fill:#BE5825;" d="M338.831,198.741c-7.273-2.284-13.738-8.043-20.163-15.689
					c-9.082-10.815-22.052-14.608-34.025-19.114l-6.634-10.562l-4.495-17.645c0.239,0.003,0.479,0.005,0.717,0.019
					c2.82,0.136,5.569,0.431,8.18,0.91c3.875,0.698,7.513,1.803,10.767,3.365c20.159,9.681,21.771,23.913,27.213,34.408
					C329.508,192.067,337.831,198.064,338.831,198.741z"/>
				<path style="fill:#D3D1CA;" d="M233.478,298.283c1.87,8.407,10.265,19.665,17.18,22.542c0,0,8.657-12.864,14.836-19.401
					c0,0,0.708,4.117,0.105,6.621c0,0,16.013-13.008,21.486-27.659c0,0,1.941,0.72,4.342,4.896c0,0,10.14-23.877,12.352-39.934
					l-61.295,5.407L233.478,298.283z"/>
				<path style="fill:#D3D1CA;" d="M287.311,178.063c-5.081,1.644-9.292,3.711-14.262,5.88c-3.059,1.322-6.405,2.053-9.338,3.591
					c-6.367,3.32-10.022,9.914-15.684,14.242c-9.419,7.185-22.664,7.113-34.443,9.797c-3.785,0.857-7.472,2.036-11.039,3.509
					c0.026,0.065,0.038,0.113,0.064,0.178c0.662,1.924,1.247,3.466,1.639,4.473c0.354,0.894,0.552,1.382,0.552,1.382
					c-7.536,16.767-9.671,30.702-4.252,42.37c2.845,6.125,4.423,9.583,13.432,18.039c5.441,5.107,6.977,10.422,6.977,10.422
					s1.815-3.376,3.072-7.148c0.236,1.986,0.601,4.763,1.601,7.269c3.233,8.106,11.907,20.745,17.413,26.945
					c-0.331-1.027-0.64-2.061-0.903-3.106c-1.052-4.181-1.538-8.462-1.563-12.743c-1.099-7.489-0.632-17.169,3.352-29.492
					c0,0,3.164,3.598,7.225,10.645c4.719-13.112,11.445-26.563,22.995-34.994c-0.786,5.705-4.749,8.196-8.839,12.421
					c6.323-4.51,14.009-6.102,19.014-11.902c4.99-5.817,8.563-13.074,8.284-20.62c3.393,4.857,5.278,10.65,5.354,16.444
					c3.603-13.789,4.191-28.325,1.708-42.415c2.312,2.359,4.369,4.958,6.116,7.711C306.876,197.492,299.369,185.373,287.311,178.063
					z"/>
				<path style="fill:#BE5825;" d="M224.601,276.627c-0.222-6.588,0.736-13.898,0.736-13.898
					c-0.902-5.249-9.759-12.183-9.683-17.506c0.039-2.708,0.204-5.414,0.574-8.098c0.344-2.495,0.779-4.959,1.027-7.468
					c0.413-4.166,0.772-8.421,2.335-12.323c-2.322,1.411-4.701,2.727-7.047,4.098c-3.76,2.199-7.289,4.743-10.832,7.269
					c-4.91,13.439-5.742,24.926-1.162,34.786c2.845,6.125,4.423,9.583,13.432,18.039c5.441,5.107,13.076,23.019,13.076,23.019
					S225.631,292.068,224.601,276.627z"/>
				<path style="fill:#FFFFFF;" d="M316.168,228.329c0,0-2.475-5.432-5.779-8.159c0,0,1.918,8.556-1.806,24.526
					c-3.104,13.233-17.81,27.461-17.81,27.461s-1.766-13.791-1.955-21.579c0,0-4.425,13.08-22.387,18.872
					c-12.321,3.973-17.947,28.435-17.947,28.435s-3.035-3.224-6.936-9.245c-1.68-2.591-3.43-5.138-4.965-7.047
					c-9.399-11.689-11.244-18.864-11.244-18.864s-6.353,7.597-5.885,13.096c0,0-5.387-6.774-5.608-19.65
					c-0.225-12.51,4.949-20.978,5.225-21.433c-0.357,0.113-5.192,1.932-10.058,8.965c0,0-0.818-14.455,9.524-27.241
					c2.293-2.864,5.151-5.62,8.692-8.139c19.42-13.784,35.983-32.681,35.983-32.681l15.758-1.31
					c5.609,2.112,27.989,7.443,35.742,29.757C319.859,218.908,316.168,228.329,316.168,228.329z"/>
				<path style="fill:#D3D1CA;" d="M286.171,179.154c-5.096,1.792-8.514,6.218-13.502,8.571c-3.07,1.434-6.423,2.238-9.369,3.901
					c-6.395,3.591-10.097,10.661-15.793,15.325c-8.006,6.543-18.731,7.57-28.972,9.514c-10.343,12.787-9.524,27.241-9.524,27.241
					c4.865-7.033,9.701-8.852,10.058-8.965c-0.276,0.455-5.45,8.924-5.225,21.433c0.085,4.933,0.929,8.962,1.936,12.066
					c1.947-6.201,5.454-10.326,9.369-15.515c3.424,8.649,12.817,12.337,20.06,18.173c0.926-3.471,27.816-16.491,32.013-38.492
					c1.608,3.642,1.878,6.882,1.205,12.563c10.987-9.191,22.314-26.967,20.75-36.806c2.297,2.504,4.339,5.265,6.067,8.194
					C306.427,201.96,298.188,186.878,286.171,179.154z"/>
				<path style="fill:#1B293B;" d="M231.422,220.025c-9.165-1.885-18.576,4.256-26.176,9.361
					c-5.476,3.678-11.182,10.681-12.292,16.425c-0.761,3.94-0.92,7.971-0.549,11.979c1.902,3.085,4.025,6.031,5.946,9.104
					c1.436,2.298,2.897,4.58,4.38,6.847c-0.377-3.215-0.515-6.432-0.177-9.634c0.751-7.128,4.11-14.302,10.655-18.38
					c-1.747,7.71-0.772,15.951,2.757,23.303c0.908-10.894,6.115-21.365,14.517-29.192c-0.144,5.537,1.105,11.133,3.629,16.268
					c1.278-4.238,2.641-8.623,5.843-11.931c3.202-3.308,8.803-5.211,13.321-3.222C251.571,232.176,241.236,222.044,231.422,220.025z
					"/>
				<path style="fill:#1B293B;" d="M268.224,89.817c-3.236-6.848-10.582-14.381-13.958-15.042
					c-1.951-0.382-3.403,0.973-5.473,11.122c-0.89,4.365-5.214,15.069-7.645,19.822c-1.81,3.538-4.237,10.744-5.831,12.835
					c0.113,1.746,0.206,3.495,0.31,5.242c0.433,7.311,0.913,14.62,1.346,21.931c0.094,1.583,0.174,3.167,0.244,4.752
					c2.446-1.119,4.887-2.248,7.348-3.336c8.558-3.783,17.279-7.206,25.835-10.975c1.106-2.382,5.013-4.339,5.321-7.345
					C277.709,109.432,271.46,96.665,268.224,89.817z"/>
				<path style="fill:#E48720;" d="M265.89,137.134c1.204-13.169-13.064-4.559-13.064-4.559s-12.418,8.592-20.552,14.236
					c0.839-3.393,1.284-6.945,1.609-10.481c0.228-2.564,0.34-5.139,0.394-7.721c1.703-1.192,3.3-2.485,5.028-4.507
					c1.298-1.532,2.691-3.44,4.273-6.043c4.571-7.558,8.206-20.391,10.197-27.085c1.495-4.961,2.247-8.363,2.247-8.363
					s9.643,11.463,11.747,25.865C270.285,125.48,265.89,137.134,265.89,137.134z"/>
				<path style="fill:#BE5825;" d="M267.768,108.477c-0.732-5.01-2.376-9.662-4.21-13.602c-0.185,2.667-0.446,5.328-0.818,7.977
					c-0.531,3.785-1.246,7.575-2.372,11.231c-1.038,3.37-2.428,6.634-4.099,9.738c-2.433,4.518-5.472,8.731-8.926,12.549
					c3.221-2.23,5.482-3.794,5.482-3.794s14.268-8.61,13.064,4.559C265.889,137.134,270.285,125.479,267.768,108.477z"/>
				<path style="fill:#FFFFFF;" d="M250.649,127.631c-10.988,7.491-11.069,5.123-11.069,5.123l-0.276-8.653
					c1.298-1.532,2.691-3.44,4.273-6.043c4.571-7.558,8.206-20.391,10.197-27.085c0.662,1.585,1.159,3.361,1.202,4.971
					c0.147,4.089-0.585,9.859-0.78,10.344c0.421-0.105,2.703-2.325,3.834-5.122C258.03,101.168,261.637,120.14,250.649,127.631z"/>
				<path style="fill:#1B293B;" d="M143.896,189.694c5.831-4.007,17.892-7.43,24.728-11.734c6.836-4.304,13.283-9.453,15.444-12.755
					c2.161-3.302,6.392-14.219,7.104-17.67c0.712-3.451,3.159-12.958,16.216-19.562c5.111-2.585,28.129-14.2,42.583-14.193
					c14.454,0.007,19.55,2.064,21.757,3.776c0,0,2.885-1.969,6.215-6.039c5.408-6.609,10.72-19.156,12.411-23.248
					c1.691-4.093,2.79-9.261,6.604-8.841c3.263,0.359,9.982,11.35,11.998,18.608c2.016,7.258,3.362,29.036-0.463,41.628
					c-3.825,12.592-26.054,13.535-26.054,13.535c-1.219,3.028-4.975,19.627-4.975,19.627c2.949,4.721,15.342,5.29,14.782,20.588
					c-0.243,6.64-3.89,12.62-3.89,12.62s-5.924-5.696-12.644-2.638c0,0,3.928,10.711-1.246,19.796c0,0-4.399-4.302-7.434-4.615
					c0,0-0.578,10.537-4.64,17.902c-5.334,9.671-11.04,12.216-11.04,12.216s-3.626-15.427-9.178-20.347
					c-4.734-4.195-7.919-6.941-15.12-6.353c-2.069,0.169-12.572,6.29-23.665,11.082c-11.094,4.792-13.644,7.699-22.408,5.682
					c-8.763-2.017-12.824-8.371-13.417-11.586c-0.592-3.215-13.083-9.836-13.083-9.836s-1.011,0.293-4.276-1.948
					c-4.522-3.104-5.74-8.939-7.524-13.576C140.896,197.176,140.981,191.697,143.896,189.694z"/>
				<path style="fill:#C1001A;" d="M204.599,210.846c-0.032-0.011-3.398,1.561-7.746,3.031c-4.212,1.425-13.586,5.18-21.203,6.453
					c2.007,0.511,4.127,0.756,6.056,0.977c0.5,0.057,1.001,0.086,1.501,0.128c1.473-0.263,2.939-0.587,4.427-1.062
					C190.822,219.356,205.733,211.23,204.599,210.846z"/>
				<path style="fill:#E48720;" d="M254.423,227.336c0,0,0.004-0.006,0.004-0.006C254.425,227.334,254.423,227.336,254.423,227.336z
					"/>
				<path style="fill:#E48720;" d="M299.599,143.573c3.196-12.84,3.948-31.484-0.503-39.395
					c1.153,20.624-11.711,32.817-11.711,32.817s1.234-5.741-0.247-8.194c-1.419,3.488-3.043,6.404-4.906,8.913
					c-4.945,6.675-11.582,10.391-20.697,14.219c0,0,4.089,2.839,18.521,1.894c7.066-0.455,7.816-0.711,7.816-0.711
					c-0.546,4.128-1.877,8.059-3.363,11.389c-0.892,2.008-1.846,3.811-2.703,5.306c-0.082,0.158-0.18,0.315-0.26,0.457
					c-1.485,2.514-2.624,4.03-2.624,4.03s0.032,0.003,0.045,0.038c7.488,7.307,6.156,19.757,6.156,19.757
					c-7.696-5.729-20.53,6.984-20.53,6.984c6.254,1.412,6.62,12.519,6.62,12.519c-3.78-3.457-11.484-1.568-11.484-1.568
					c0.557,6.409-5.4,15.797-5.441,15.876c0.078-0.125,0.886-2.109-14.056-10.669c-2.616-1.453-14.3-7.093-17.74-8.198
					c-9.388-2.952-16.949-3.965-25.133-3.676c-4.275,0.159-8.716,0.668-13.676,1.44c-7.699,1.19-18.826,4.26-26.61,4.657
					c-2.536-1.929-6.106-3.214-7.721-5.798c-0.399-0.608-0.709-1.29-0.844-2.071c-1.175-6.973-1.252-10.298,8.515-12.925
					c7.266-1.951,16.735-6.359,26.09-13.396c0,0,3.346-2.705,6.422-7.139c1.015-1.429,1.981-3.03,2.813-4.761
					c1.709-3.591,4.394-10.366,6.241-17.794c1.788-7.001,15.54-17.068,39.096-23.074c0.05-0.011,0.068-0.026,0.068-0.026
					c1.469-0.382,2.985-0.742,4.532-1.083c5.688-1.297,10.329-1.669,14.004-1.59c8.989,0.211,11.193,2.822,11.193,2.822
					c-5.119,3.823-12.465,4.766-16.283,10.707c-0.839,1.314-1.361,2.744-1.664,4.13c-0.708,3.128-0.35,5.949-0.31,6.203
					c0.028-0.28,0.422-3.057,5.081-7.211c0.451-0.404,0.939-0.837,1.491-1.263c12.434-8.07,15.277-4.776,24.673-15.993
					c1.065-1.274,2.116-2.732,3.129-4.312c0.002-0.017,0.021-0.048,0.039-0.063c4.597-7.144,8.572-16.603,10.983-21.789
					c1.946-4.15,3.034-6.972,3.034-6.972s4.431,7.292,6.568,17.132c0.681,3.204,1.139,6.669,1.109,10.25
					C305.22,132.616,299.599,143.573,299.599,143.573z"/>
				<path style="fill:#BE5825;" d="M299.732,143.004c3.196-12.84,3.949-31.484-0.503-39.395
					c1.153,20.624-11.711,32.817-11.711,32.817s1.234-5.741-0.247-8.194c-1.419,3.488-3.043,6.404-4.906,8.913
					c-4.945,6.675-11.582,10.391-20.697,14.219c0,0,4.089,2.839,18.521,1.894c7.066-0.455,7.816-0.711,7.816-0.711
					c-0.546,4.128-1.877,8.058-3.363,11.389c-2.485-0.957-5.056-1.722-7.666-2.258c1.938,2.317,3.623,4.858,4.963,7.564
					c0.149,0.316,0.3,0.614,0.449,0.93c-0.229-0.174-0.46-0.331-0.709-0.473c-3.908-2.67-8.332-4.461-12.575-6.582
					c-4.475-2.262-8.917-5.021-11.79-9.168c-2.887-4.165-3.881-9.986-1.323-14.34c-0.378,2.945,1.333,6.056,4.005,7.282
					c4.962-3.239,9.976-6.506,14.19-10.656c0.584-0.573,1.151-1.148,1.706-1.758c4.543-4.966,7.868-11.391,7.84-18.163
					c0.003-0.033-0.008-0.084-0.005-0.117l0.044,0.055c1.025,1.089,2.05,2.179,3.059,3.266c5.169-6.285,9.929-15.677,11.117-23.757
					c2.98,1.924,6.408,8.86,6.408,8.86c0.681,3.204,1.139,6.669,1.109,10.25C305.353,132.048,299.732,143.004,299.732,143.004z"/>
				<g>
					<path style="fill:#FFFFFF;" d="M282.39,177.208c-0.822-1.022-2.219-1.882-3.422-2.872c1.405,2.872-0.342,8.06-1.036,9.343
						c-0.324-0.303-4.022-3.295-20.755-5.616c-13.986-1.94-26.87,4.256-26.87,4.256c4.7,2.319,4.902,5.14,5.01,5.535
						c-10.888-4.64-21.575-0.787-21.575-0.787c5.77,1.56,5.446,3.393,5.446,3.393s-15.367-2.699-29.332,0.938
						c-9.181,2.392-17.871,7.229-27.564,6.329l-7.695,4.424l-5.113,2.94c1.615,2.584,5.186,3.869,7.721,5.798
						c7.784-0.397,18.911-3.467,26.61-4.657c4.961-0.772,9.402-1.281,13.675-1.423c4.471-0.156,8.771,0.088,13.269,0.819
						c-0.16,0.284-0.214,0.495-0.214,0.495s1.673,8.558-4.648,12.891c-1.359,0.927-2.664,1.809-3.934,2.662
						c-7.66,5.061-13.647,8.361-16.955,7.737c-3.856-0.731-8.523-2.563-11.071-5.193c0,0,0.388,3.674,3.62,5.708
						c3.045,1.931,4.809,3.363,9.227,3.252c3.312-0.075,9.553-2.949,16.789-6.737c2.362-1.257,4.814-2.587,7.304-3.964
						c7.292-4.016,15.74-6.278,21.231-5.945c17.323,1.053,22.066,21.131,22.066,21.131s9.323-11.141,5.688-26.203
						c0,0,7.704-1.889,11.484,1.568c0,0-0.365-11.107-6.62-12.519c0,0,12.52-9.578,20.215-3.85
						C284.942,196.676,290.392,187.252,282.39,177.208z"/>
				</g>
				<path style="fill:#BE5825;" d="M200.885,181.925c0,0,0.081-2.22,8.36-2.188c8.28,0.031,8.699,1.861,16.4,0.466
					c5.766-1.044,9.359-4.924,11.356-10.395c1.997-5.471,3.823-8.841,3.823-8.841s-3.267,2.224-5.268,4.508
					c0,0,2.688-9.097,2.467-13.055c0,0-6.893,7.161-14.806,10.789C215.303,166.837,203.306,175.66,200.885,181.925z"/>
				<g>
					<path style="fill:#1B293B;" d="M221.74,177.379c7.977-0.232,9.142-12.964,9.297-15.547c5.781-2.908,7.995-12.664,7.995-12.664
						s-4.18,5.83-9.562,8.244c-8.074,3.621-16.324,7.713-24.15,17.44c-2.719,3.379-4.686,7.466-4.686,7.466s4.8-4.143,6.577-5.037
						c2.938-1.477,3.844-0.084,4.979,0.403c12.675,5.433,18.435,2.468,18.435,2.468C227.543,180.322,221.74,177.379,221.74,177.379z
						"/>
					<path style="fill:#E48620;" d="M214.533,173.969c0.471-1.998,7.514-7.721,11.313-9.108c0.036-0.063,2.049,5.091-0.746,8.152
						C220.645,177.892,214.533,173.969,214.533,173.969z"/>
					<path style="fill:#FFFFFF;" d="M222.572,166.476c0.574,1.275-0.057,3.676-0.699,4.223c-1.588,1.353-4.763,1.936-4.763,1.936
						s0.386-2.34,2.007-3.879C220.887,167.076,222.589,166.456,222.572,166.476z"/>
					<path style="fill:#1B293B;" d="M220.614,168.331c-0.999,0.913-1.866,2.292-1.115,2.653c0.751,0.362,2.814-0.779,2.814-0.779
						s-0.382,1.506-2.262,2.392c-3.433,1.618-5.118,0.267-5.118,0.267s1.592-2.784,3.134-3.841
						C219.609,167.966,220.614,168.331,220.614,168.331z"/>
				</g>
				<path style="fill:#D3D1CA;" d="M284.943,196.659c-7.696-5.728-20.215,3.849-20.215,3.849c6.254,1.412,6.619,12.519,6.619,12.519
					c-3.78-3.457-11.484-1.568-11.484-1.568c3.635,15.062-5.688,26.203-5.688,26.203s-4.743-20.077-22.066-21.131
					c-5.491-0.333-13.939,1.93-21.231,5.945c-2.49,1.377-4.941,2.708-7.304,3.964c-7.236,3.788-13.477,6.662-16.789,6.737
					c-4.418,0.111-6.181-1.321-9.227-3.252c-3.232-2.034-3.62-5.708-3.62-5.708c2.548,2.63,7.214,4.462,11.071,5.193
					c3.308,0.625,9.295-2.675,16.955-7.737c1.269-0.853,2.575-1.735,3.934-2.662c6.321-4.333,4.648-12.891,4.648-12.891
					s0.054-0.211,0.214-0.495c-4.498-0.731-8.797-0.974-13.269-0.819c-4.273,0.143-8.714,0.652-13.675,1.423
					c-7.699,1.19-18.826,4.26-26.61,4.657c-2.536-1.929-6.106-3.214-7.721-5.798l5.113-2.94c3.007-0.307,6.06-0.258,9.074,0.186
					l-4.856,1.366c8.35,2.979,17.59,1.831,26.163-0.369c3.898-0.998,7.751-2.201,11.614-3.336c4.657-1.353,9.319-2.589,14.117-3.212
					c9.263-1.212,32.525-5.147,40.02-1.523c-0.02-4.386-1.967-5.587-4.611-9.061c20.946-3.054,33.768,3.744,33.768,3.744
					s2.317-1.079,3.11-5.718c0.535-3.127-0.608-7.02-0.608-7.02C290.392,187.252,284.942,196.676,284.943,196.659z"/>
				<path style="fill:#1B293B;" d="M154.757,209.29c-2.634-2.382,0.594-2.681,4.561-2.773c3.967-0.092,6.052-2.77,6.809-4.498
					c0.532-1.214,1.061-6.384-1.387-6.637c-2.448-0.253-9.516,0.851-15.078-1.872c-1.598-0.782-3.929,0.14-3.54,4.534
					c0.39,4.395,1.15,7.073,2.486,8.549C149.944,208.069,154.757,209.29,154.757,209.29z"/>
				<path style="fill:#1B293B;" d="M192.264,202.324c0,0,11.717,1.096,18.648,4.199c4.597,2.058,6.977,3.324,6.977,3.324
					s-0.2-4.125-7.089-7.416C203.912,199.141,192.264,202.324,192.264,202.324z"/>
				<path style="fill:#D3D1CA;" d="M174.235,225.495c2.245,1.56,8.52,1.215,9.6,1.326c1.081,0.111,8.831-3.148,13.151-5.58
					c4.32-2.432,7.968-5.418,8.613-6.048c0.721-0.706,1.271-1.995,1.271-1.995s-1.57,1.201-3.214,2.359
					c-1.645,1.159-12.176,6.335-14.433,7.076c-2.258,0.741-4.152,0.805-4.672,0.114c-0.498-0.66-3-5.019-3.007-4.221
					c-0.007,0.798-0.437,4.323-0.437,4.323s-5.323-0.652-5.792-1.055c-0.469-0.403-4.613-4.077-4.147-2.922
					S174.235,225.495,174.235,225.495z"/>
				<path style="fill:#FFFFFF;" d="M291.496,119.595c-3.468,4.163-9.659,10.285-20.164,13.46c-7.881,2.382-9.845,1.959-17.123,5.104
					c5.33-6.17,16.458-5.677,26.389-17.53c5.932-7.09,11.198-19.814,14.153-26.171c-1.015,8.074-3.941,16.361-3.941,16.361
					c3.147-1.252,4.785-3.156,4.785-3.156S294.939,115.4,291.496,119.595z"/>
				<path style="fill:#D3D1CA;" d="M157.209,210.887c1.602,1.089,4.252,1.467,5.657,2.398c1.405,0.931,4.098,2.938,3.996,2.403
					c-0.101-0.534,0.194-2.966-0.143-3.211c-0.337-0.244,7.738-1.402,8.535-1.372c0.798,0.03,2.419,1.747,3.029,2.476
					c0.866,1.035,1.322,0.848,1.427,0.236c0.317-1.85,0.317-3.156,0.317-3.156s7.395-2.155,13.029-3.376
					c5.939-1.288,12.15-2.495,12.15-2.495s-2.13-0.633-8.295-0.644c-3.357-0.006-21.982,3.798-21.982,3.798l-16.28,0.512
					L157.209,210.887z"/>
				<path style="fill:#D3D1CA;" d="M197.635,206.081c0.695,0.559,1.56,2.425,1.693,2.592c0.134,0.166,0.739-2.147,0.928-2.895
					C200.446,205.03,197.635,206.081,197.635,206.081z"/>
				<path style="fill:#1B293B;" d="M215.855,220.071c0.44-0.137,16.496-7.643,31.541-4.147c0,0-6.083,2.145-12.479,4.911
					L215.855,220.071z"/>
				<path style="fill:#FFFFFF;" d="M204.573,151.292c0,0,3.749-2.365,3.271-6.183c0,0-2.123,3.09-4.61,2.894
					c0.758-0.93,2.157-3.112,3.584-5.93c3.666-7.241,29.64-17.533,31.001-18.143c-23.556,6.006-37.309,16.073-39.096,23.074
					c-1.847,7.428-4.533,14.203-6.241,17.794c-0.831,1.731-1.798,3.332-2.813,4.761c3.028-1.318,8.916-6.589,9.61-10.159
					c0,0,2.968-0.204,7.447-3.498c4.749-3.492,4.048-7.458,4.048-7.458S208.745,151.204,204.573,151.292z"/>
				<path style="fill:#FFFFFF;" d="M148.979,197.567c1.204,2.524,6.025,2.965,8.959,2.775c2.934-0.19,3.702-1.902,3.702-1.902
					s-5.842,0.404-11.646-1.859C147.94,195.781,148.979,197.567,148.979,197.567z"/>
				<path style="fill:#1B293B;" d="M310.727,230.6c0,0-4.858,26.736-17.813,32.782c-1.72-8.502-4.828-17.264-4.828-17.264
					s-8.453,16.199-12.677,18.811c0,0,0.907-5.318-0.278-8.264c0,0-4.878,2.241-13.84,12.404
					c-8.962,10.163-10.969,12.8-15.088,20.72c0,0-15.729-18.053-20.865-27.059c0,0,1.552,4.851,6.096,13.64
					c3.79,7.33,13.472,19.578,16.591,23.454c0.614,0.769,1.006,1.242,1.006,1.242s3.534-13.132,10.059-21.297
					c6.525-8.165,9.8-10.442,9.8-10.442s0.407,1.924,0.295,6.747c0,0,10.196-4.433,17.708-19.222
					c0.886,4.07,1.389,6.897,2.226,11.088c1.237,6.196,0.792,5.384,0.792,5.384S315.557,260.321,310.727,230.6z"/>
				<g>
					<path style="fill:#D3D1CA;" d="M199.529,264.382l0,0.003C199.529,264.385,199.529,264.382,199.529,264.382z"/>
				</g>
			</g>
			<path style="clip-path:url(#SVGID_00000016054190107316999140000002158845911724473787_);fill:#1B293B;" d="M244.804,318.849
				c0,0-18.175-22.727-20.218-46.564c0,0-3.873,14.607,0.587,29.65C228.377,312.741,244.804,318.849,244.804,318.849z"/>
			<path style="clip-path:url(#SVGID_00000016054190107316999140000002158845911724473787_);fill:#1B293B;" d="M238.698,329.605
				c0,0,22.951-22.369,27.699-47.668c0,0,2.91,16.057-3.687,31.68C257.972,324.84,238.698,329.605,238.698,329.605z"/>
		</g>
		<path style="fill:#1B293B;" d="M310.727,230.6c0,0-4.59,29.012-17.813,32.782c-0.003-0.194-0.5-0.448-0.506-0.644
			c-0.309,0.629-0.118,1.318-0.422,1.924c-0.813,1.621-1.643,3.235-2.571,4.794c0.539,2.831,0.598,3.634,0.566,3.836
			C291.282,272.678,316.67,261.251,310.727,230.6z"/>
	</g>
</g>
<g id="TEXTS">
	<g>
		<g>
			
				<text transform="matrix(1 0 0 1 115.4044 396.7616)" style="fill:#1B293B; font-family:'ChangaOne-Italic'; font-size:76.9113px;">THE FOX</text>
		</g>
		<text transform="matrix(1 0 0 1 159.027 421.6512)" style="fill:#1B293B; font-family:'MulishRoman-Bold'; font-size:16.3137px;">YOUR TAGLINE HERE</text>
	</g>
</g>
</svg>
